IKResults
version=1
nRows=24
nColumns=24
inDegrees=yes

Units are S.I. units (second, meters, Newtons, ...)
If the header above contains a line with 'inDegrees', this indicates whether rotational values are in degrees (yes) or radians (no).

endheader
time	pelvis_tilt	pelvis_list	pelvis_rotation	pelvis_tx	pelvis_ty	pelvis_tz	hip_flexion_r	hip_adduction_r	hip_rotation_r	knee_angle_r	ankle_angle_r	subtalar_angle_r	mtp_angle_r	hip_flexion_l	hip_adduction_l	hip_rotation_l	knee_angle_l	ankle_angle_l	subtalar_angle_l	mtp_angle_l	lumbar_extension	lumbar_bending	lumbar_rotation
5.300000	11.736235	2.426041	-181.266488	0.321034	0.561314	-1.216433	74.629754	-25.430712	-10.609435	-102.148755	35.766177	7.413927	0.000000	77.610851	-32.525993	-8.281258	-103.139228	35.970523	11.264608	0.000000	-10.021500	1.816843	4.616544
5.305000	11.729651	2.391881	-181.261724	0.320468	0.566119	-1.216402	73.970550	-25.267439	-10.805027	-101.253409	35.458491	7.301147	0.000000	76.837804	-32.406466	-8.692585	-102.260541	35.705275	11.245567	0.000000	-9.919273	1.786721	4.579656
5.310000	11.740520	2.360664	-181.256513	0.319911	0.570883	-1.216364	73.342369	-25.103005	-11.000034	-100.365413	35.110567	7.209379	0.000000	76.100685	-32.286738	-9.096824	-101.367911	35.437024	11.247693	0.000000	-9.803795	1.737420	4.600837
5.315000	11.713838	2.344139	-181.230171	0.319274	0.575731	-1.216327	72.648430	-24.953623	-11.224109	-99.466217	34.799469	7.084231	0.000000	75.324870	-32.146897	-9.473960	-100.470235	35.166834	11.188976	0.000000	-9.708886	1.727218	4.603219
5.320000	11.680182	2.339793	-181.232138	0.318654	0.580500	-1.216287	71.962744	-24.783370	-11.448652	-98.573135	34.501097	6.985516	0.000000	74.567998	-32.042228	-9.836549	-99.600778	34.852709	11.128100	0.000000	-9.630106	1.737878	4.580679
5.325000	11.661988	2.310354	-181.215563	0.318029	0.585321	-1.216238	71.295708	-24.637763	-11.661361	-97.665897	34.153014	6.816341	0.000000	73.801441	-31.892503	-10.219233	-98.698461	34.542952	11.079031	0.000000	-9.530621	1.711669	4.583581
5.330000	11.656042	2.270853	-181.200199	0.317355	0.590132	-1.216178	70.631763	-24.497770	-11.856146	-96.738952	33.800269	6.718925	0.000000	73.035255	-31.753749	-10.632871	-97.787370	34.202291	11.054800	0.000000	-9.397837	1.706719	4.532993
5.335000	11.635625	2.232349	-181.183463	0.316674	0.594967	-1.216059	69.949721	-24.369469	-12.059565	-95.801001	33.458281	6.596298	0.000000	72.251879	-31.594559	-11.041085	-96.864502	33.889464	11.017534	0.000000	-9.290774	1.687842	4.543553
5.340000	11.694358	2.283455	-181.234779	0.316129	0.599635	-1.216306	69.348174	-24.101974	-12.332115	-94.874927	33.104054	6.475778	0.000000	71.643810	-31.581326	-11.342367	-95.959100	33.512650	10.999470	0.000000	-9.123810	1.700686	4.641733
5.345000	11.659974	2.257412	-181.207539	0.315470	0.604486	-1.216176	68.661010	-23.991426	-12.560658	-93.947763	32.755557	6.375175	0.000000	70.876411	-31.423813	-11.724520	-95.050021	33.155265	10.968006	0.000000	-9.040092	1.716665	4.582134
5.350000	11.688532	2.268145	-181.255645	0.314870	0.609258	-1.216355	68.029321	-23.754217	-12.790818	-92.991721	32.398596	6.278189	0.000000	70.185056	-31.374005	-12.082606	-94.128949	32.798119	10.983308	0.000000	-8.896201	1.714919	4.648750
5.355000	11.668945	2.233354	-181.207247	0.314128	0.614132	-1.216310	67.320009	-23.673268	-13.038354	-92.023843	32.057497	6.254032	0.000000	69.404929	-31.192097	-12.473306	-93.163402	32.425990	10.984606	0.000000	-8.792530	1.665998	4.663164
5.360000	11.664494	2.193009	-181.177889	0.313421	0.618986	-1.216270	66.633770	-23.565311	-13.262765	-91.041607	31.687235	6.228889	0.000000	68.631472	-31.029808	-12.889699	-92.184299	32.076647	10.992606	0.000000	-8.651961	1.689246	4.561710
5.365000	11.648403	2.162425	-181.167583	0.312653	0.623813	-1.216217	65.945339	-23.445828	-13.449454	-90.084132	31.325841	6.342793	0.000000	67.856762	-30.894724	-13.296284	-91.259599	31.688731	11.000243	0.000000	-8.553562	1.647846	4.616865
5.370000	11.637714	2.134539	-181.144776	0.311879	0.628644	-1.216123	65.256781	-23.360387	-13.759878	-89.096457	30.984008	6.155763	0.000000	67.095865	-30.740581	-13.691360	-90.293326	31.278639	11.132023	0.000000	-8.432144	1.646497	4.627625
5.375000	11.632374	2.105198	-181.158341	0.311077	0.633478	-1.215995	64.588067	-23.243498	-13.999760	-88.118565	30.590594	6.124129	0.000000	66.317915	-30.617304	-14.150270	-89.260766	30.962945	11.091491	0.000000	-8.304697	1.656461	4.654950
5.380000	11.626942	2.048338	-181.134023	0.310396	0.638246	-1.215914	63.924379	-23.161322	-14.224373	-87.128317	30.232471	6.094520	0.000000	65.564071	-30.403924	-14.477191	-88.107239	30.276825	10.817618	0.000000	-8.194300	1.624488	4.649695
5.385000	11.637235	1.991112	-181.106509	0.309574	0.643051	-1.215873	63.250406	-23.074262	-14.458822	-86.117066	29.846162	6.094865	0.000000	64.806899	-30.216885	-14.898753	-87.093860	29.983344	11.082172	0.000000	-8.044308	1.572979	4.658516
5.390000	11.619263	1.942158	-181.088068	0.308822	0.647792	-1.215887	62.562934	-22.970449	-14.687640	-85.114857	29.477079	6.103231	0.000000	64.034099	-30.051200	-15.309636	-86.089589	29.608931	11.149990	0.000000	-7.952961	1.528839	4.660647
5.395000	11.603049	1.925642	-181.092128	0.307988	0.652598	-1.215890	61.854301	-22.833417	-14.955484	-84.092041	29.082010	6.143581	0.000000	63.254821	-29.909324	-15.687231	-85.072107	29.130775	10.953146	0.000000	-7.824061	1.547785	4.682324
5.400000	11.595183	1.905142	-181.090517	0.307182	0.657358	-1.215834	61.169683	-22.719353	-15.229620	-83.083497	28.682750	6.126593	0.000000	62.498194	-29.733561	-16.049465	-84.022814	28.609809	10.886366	0.000000	-7.703376	1.554460	4.710916
5.405000	11.613409	1.873023	-181.084477	0.306409	0.662049	-1.215784	60.515219	-22.607080	-15.487471	-82.055644	28.293781	6.117753	0.000000	61.790034	-29.560486	-16.429633	-83.020829	28.352986	11.196495	0.000000	-7.559429	1.548873	4.718689
5.410000	11.578419	1.849264	-181.084021	0.305564	0.666750	-1.215859	59.795455	-22.475428	-15.754144	-81.029819	27.878555	6.142785	0.000000	61.011324	-29.409513	-16.810006	-82.010000	27.945846	11.231846	0.000000	-7.466506	1.528878	4.731999
5.415000	11.605218	1.815935	-181.104183	0.304725	0.671413	-1.215850	59.146670	-22.334683	-15.996238	-79.980869	27.465204	6.160393	0.000000	60.291318	-29.260607	-17.202110	-81.012490	27.549543	11.322474	0.000000	-7.300806	1.524489	4.778644
